<svg width="18" height="16" viewBox="0 0 18 16" fill="none" xmlns="http://www.w3.org/2000/svg">
<path d="M6.75 11.75H5.25C4.25544 11.75 3.30161 11.3549 2.59835 10.6517C1.89509 9.94841 1.5 8.99458 1.5 8.00002C1.5 7.00545 1.89509 6.05163 2.59835 5.34837C3.30161 4.6451 4.25544 4.25002 5.25 4.25002V6.12502C5.24995 6.19524 5.26962 6.26407 5.30677 6.32366C5.34392 6.38326 5.39706 6.43122 5.46014 6.46209C5.52321 6.49297 5.59369 6.50551 5.66354 6.49829C5.7334 6.49107 5.79982 6.46439 5.85525 6.42127L9.23025 3.79627C9.27542 3.76121 9.31197 3.7163 9.33712 3.66495C9.36226 3.61361 9.37533 3.55719 9.37533 3.50002C9.37533 3.44284 9.36226 3.38643 9.33712 3.33508C9.31197 3.28374 9.27542 3.23882 9.23025 3.20377L5.85525 0.578766C5.79982 0.535648 5.7334 0.50896 5.66354 0.501742C5.59369 0.494524 5.52321 0.507066 5.46014 0.537939C5.39706 0.568812 5.34392 0.616776 5.30677 0.676369C5.26962 0.735963 5.24995 0.804791 5.25 0.875016V2.75002C3.85761 2.75002 2.52226 3.30314 1.53769 4.28771C0.553124 5.27227 0 6.60763 0 8.00002C0 9.3924 0.553124 10.7278 1.53769 11.7123C2.52226 12.6969 3.85761 13.25 5.25 13.25H6.75C6.94891 13.25 7.13968 13.171 7.28033 13.0303C7.42098 12.8897 7.5 12.6989 7.5 12.5C7.5 12.3011 7.42098 12.1103 7.28033 11.9697C7.13968 11.829 6.94891 11.75 6.75 11.75Z" fill="#9CA4AB"/>
<path d="M12.75 2.75H11.25C11.0511 2.75 10.8603 2.82902 10.7197 2.96967C10.579 3.11032 10.5 3.30109 10.5 3.5C10.5 3.69891 10.579 3.88968 10.7197 4.03033C10.8603 4.17098 11.0511 4.25 11.25 4.25H12.75C13.7446 4.25 14.6984 4.64509 15.4016 5.34835C16.1049 6.05161 16.5 7.00544 16.5 8C16.5 8.99456 16.1049 9.94839 15.4016 10.6516C14.6984 11.3549 13.7446 11.75 12.75 11.75V9.875C12.75 9.80477 12.7304 9.73595 12.6932 9.67635C12.6561 9.61676 12.6029 9.56879 12.5399 9.53792C12.4768 9.50705 12.4063 9.49451 12.3365 9.50173C12.2666 9.50894 12.2002 9.53563 12.1447 9.57875L8.76975 12.2037C8.72458 12.2388 8.68803 12.2837 8.66288 12.3351C8.63774 12.3864 8.62466 12.4428 8.62466 12.5C8.62466 12.5572 8.63774 12.6136 8.66288 12.6649C8.68803 12.7163 8.72458 12.7612 8.76975 12.7962L12.1447 15.4212C12.2002 15.4644 12.2666 15.4911 12.3365 15.4983C12.4063 15.5055 12.4768 15.4929 12.5399 15.4621C12.6029 15.4312 12.6561 15.3832 12.6932 15.3236C12.7304 15.2641 12.75 15.1952 12.75 15.125V13.25C14.1424 13.25 15.4777 12.6969 16.4623 11.7123C17.4469 10.7277 18 9.39239 18 8C18 6.60761 17.4469 5.27226 16.4623 4.28769C15.4777 3.30312 14.1424 2.75 12.75 2.75Z" fill="#9CA4AB"/>
</svg>
