<svg width="18" height="17" viewBox="0 0 18 17" fill="none" xmlns="http://www.w3.org/2000/svg">
<path d="M16.4625 1.53825C15.4703 0.54675 14.1525 0 12.75 0C11.3475 0 10.0297 0.54675 9.03825 1.5375C9.0255 1.55025 9.01275 1.563 9 1.5765C8.98725 1.563 8.97525 1.551 8.9625 1.53825C7.97025 0.54675 6.6525 0 5.25 0C3.8475 0 2.52975 0.54675 1.5375 1.53825C0.54525 2.52975 0 3.8475 0 5.25C0 6.6525 0.546 7.97025 1.5375 8.96175L9 16.4242L16.4625 8.96175C17.454 7.97025 18 6.6525 18 5.25C18 3.84825 17.454 2.52975 16.4625 1.53825Z" fill="#9CA4AB"/>
</svg>
