<svg width="14" height="16" viewBox="0 0 14 16" fill="none" xmlns="http://www.w3.org/2000/svg">
<path d="M8.33334 9.33325H5.66668C4.25268 9.33484 2.89704 9.89725 1.89719 10.8971C0.897345 11.897 0.334932 13.2526 0.333344 14.6666C0.333252 14.8079 0.378084 14.9456 0.461366 15.0598C0.544649 15.174 0.662071 15.2588 0.796677 15.3019C2.82124 15.8257 4.90967 16.0607 7.00001 15.9999C9.09035 16.0607 11.1788 15.8257 13.2033 15.3019C13.3379 15.2588 13.4554 15.174 13.5387 15.0598C13.6219 14.9456 13.6668 14.8079 13.6667 14.6666C13.6651 13.2526 13.1027 11.897 12.1028 10.8971C11.103 9.89725 9.74734 9.33484 8.33334 9.33325Z" fill="#9CA4AB"/>
<path d="M7.00001 8.00003C9.06668 8.00003 10.6667 5.6867 10.6667 3.6967C10.6667 2.72424 10.2804 1.7916 9.59274 1.10397C8.9051 0.416338 7.97247 0.0300293 7.00001 0.0300293C6.02755 0.0300293 5.09492 0.416338 4.40729 1.10397C3.71965 1.7916 3.33334 2.72424 3.33334 3.6967C3.33334 5.6867 4.93334 8.00003 7.00001 8.00003Z" fill="#9CA4AB"/>
</svg>
